<svg xmlns:dc="http://purl.org/dc/elements/1.1/" xmlns:cc="http://creativecommons.org/ns#" xmlns:rdf="http://www.w3.org/1999/02/22-rdf-syntax-ns#" xmlns:svg="http://www.w3.org/2000/svg" xmlns="http://www.w3.org/2000/svg" viewBox="0 0 280 280" fill="none"><metadata><rdf:RDF><cc:Work><dc:format>image/svg+xml</dc:format><dc:type rdf:resource="http://purl.org/dc/dcmitype/StillImage"/><dc:title>Avataaars</dc:title><dc:creator><cc:Agent><dc:title>Pablo Stanley</dc:title></cc:Agent></dc:creator><dc:source>https://avataaars.com/</dc:source><cc:license rdf:resource="https://avataaars.com/"/><dc:contributor><cc:Agent><dc:title>Florian Körner</dc:title></cc:Agent></dc:contributor></cc:Work></rdf:RDF></metadata><mask id="avatarsRadiusMask"><rect width="280" height="280" rx="0" ry="0" x="0" y="0" fill="#fff"/></mask><g mask="url(#avatarsRadiusMask)"><g transform="translate(40, 36)"><path d="M100 0C69.072 0 44 25.072 44 56v6.166c-5.675.952-10 5.888-10 11.834v14c0 6.052 4.48 11.058 10.305 11.881 2.067 19.806 14.458 36.541 31.695 44.73V163h-4c-39.764 0-72 32.236-72 72v9h200v-9c0-39.764-32.236-72-72-72h-4v-18.389c17.237-8.189 29.628-24.924 31.695-44.73C161.52 99.058 166 94.052 166 88V74c0-5.946-4.325-10.882-10-11.834V56c0-30.928-25.072-56-56-56z" fill="#FD9841"/><path d="M76 144.611v8A55.79 55.79 0 00100 158a55.789 55.789 0 0024-5.389v-8A55.789 55.789 0 01100 150a55.79 55.79 0 01-24-5.389z" fill="#000" fill-opacity=".1"/></g><g transform="translate(8, 170)"><path d="M92.68 29.936C58.295 35.366 32 65.138 32 101.052V110h200v-8.948c0-35.914-26.294-65.686-60.681-71.116a23.874 23.874 0 01-7.555 13.603l-29.085 26.229a4 4 0 01-5.358 0l-29.085-26.229a23.871 23.871 0 01-7.555-13.603z" fill="#929598"/></g><g transform="translate(86, 134)"><path fill-rule="evenodd" clip-rule="evenodd" d="M40 15c0 7.732 6.268 14 14 14s14-6.268 14-14" fill="#000" fill-opacity=".7"/></g><g transform="translate(112, 122)"><path fill-rule="evenodd" clip-rule="evenodd" d="M16 8c0 4.418 5.373 8 12 8s12-3.582 12-8" fill="#000" fill-opacity=".16"/></g><g transform="translate(84, 90)"><path d="M26.998 16c-4.834 0-8.991 2.648-10.838 6.447-.54 1.111.387 1.853 1.277 1.125 2.437-1.993 5.82-3.228 9.56-3.228.082 0 .163 0 .244.002a6 6 0 1010.699 2.8 2 2 0 00-.125-.739 7.55 7.55 0 00-.144-.372 6.007 6.007 0 00-1.646-2.484C33.9 17.317 30.507 16 26.998 16zm58 0c-4.834 0-8.991 2.648-10.838 6.447-.54 1.111.387 1.853 1.278 1.125 2.436-1.993 5.82-3.228 9.56-3.228.08 0 .162 0 .243.002a6 6 0 1010.699 2.8 2 2 0 00-.125-.739 7.55 7.55 0 00-.144-.372 6.007 6.007 0 00-1.646-2.484C91.9 17.317 88.506 16 84.998 16z" fill="#000" fill-opacity=".6"/></g><g transform="translate(84, 82)"><path d="M15.591 14.162c4.496-6.326 14.012-9.509 23.756-6.366a2 2 0 101.228-3.807c-11.408-3.68-22.74.11-28.244 7.856a2 2 0 103.26 2.317zm80.786 6.996c-3.914-5.509-14.647-8.598-23.892-6.328a2 2 0 01-.954-3.884c10.736-2.637 23.165.94 28.107 7.895a2 2 0 11-3.26 2.317z" fill="#000" fill-opacity=".6"/></g><g transform="translate(7, 0)"><path fill-rule="evenodd" clip-rule="evenodd" d="M180.15 39.92c-2.76-2.82-5.964-5.213-9.081-7.613-.687-.53-1.386-1.046-2.058-1.595-.153-.125-1.719-1.246-1.906-1.659-.451-.993-.19-.22-.128-1.404.079-1.498 3.134-5.73.854-6.7-1.003-.427-2.791.709-3.753 1.084a59.558 59.558 0 01-5.731 1.9c.932-1.857 2.708-5.573-.631-4.579-2.602.775-5.026 2.768-7.64 3.705.865-1.418 4.324-5.811 1.198-6.057-.972-.076-3.803 1.748-4.85 2.138-3.137 1.165-6.341 1.92-9.634 2.513-11.198 2.018-24.293 1.442-34.653 6.54-7.987 3.93-15.874 10.029-20.489 17.794-4.447 7.486-6.11 15.677-7.041 24.254-.683 6.295-.739 12.802-.42 19.119.105 2.07.338 11.611 3.345 8.721 1.498-1.44 1.487-7.253 1.864-9.22.751-3.916 1.474-7.848 2.726-11.638 2.206-6.68 4.809-13.793 10.305-18.393 3.527-2.952 6.004-6.941 9.379-9.919 1.516-1.337.359-1.198 2.797-1.022 1.638.117 3.282.162 4.923.205 3.796.099 7.598.074 11.395.087 7.647.028 15.258.136 22.898-.265 3.395-.177 6.799-.274 10.185-.588 1.891-.175 5.247-1.387 6.804-.461 1.425.847 2.905 3.615 3.928 4.748 2.418 2.679 5.3 4.724 8.126 6.92 5.895 4.58 8.87 10.332 10.661 17.488 1.783 7.13 1.283 13.745 3.49 20.762.389 1.234 1.416 3.36 2.682 1.454.235-.354.175-2.3.175-3.42 0-4.52 1.144-7.91 1.13-12.46-.056-13.832-.504-31.868-10.85-42.439z" fill="#724133"/></g></g></svg>